<svg width="427" height="179" viewBox="0 0 427 179" fill="none" xmlns="http://www.w3.org/2000/svg">
<path d="M0.242188 5.25H8.67969V174H0.242188V5.25ZM50.8672 5.25H59.3047V131.812H121.531V140.25H59.3047V148.688H121.531V157.125H59.3047V165.562H121.531V174H50.8672V5.25ZM33.9922 5.25H42.4297V174H33.9922V5.25ZM17.1172 5.25H25.5547V174H17.1172V5.25ZM217.742 93.7266H204.383C187.977 93.7266 175.359 90.4062 166.531 83.7656C157.703 77.0469 153.289 67.8281 153.289 56.1094C153.289 45.1719 158.484 36.0703 168.875 28.8047C179.266 21.4609 193.836 17.7891 212.586 17.7891C225.086 17.7891 236.727 19.5078 247.508 22.9453C258.367 26.3828 267.391 31.2266 274.578 37.4766L268.016 42.75C261.609 37.5156 253.562 33.4531 243.875 30.5625C234.188 27.6719 223.758 26.2266 212.586 26.2266C196.102 26.2266 183.484 29.0391 174.734 34.6641C166.062 40.2891 161.727 47.4375 161.727 56.1094C161.727 65.4844 165.281 72.7109 172.391 77.7891C179.578 82.7891 190.242 85.2891 204.383 85.2891H217.273C233.914 85.2891 246.648 88.6484 255.477 95.3672C264.383 102.008 268.836 111.188 268.836 122.906C268.836 133.844 263.641 142.984 253.25 150.328C242.859 157.594 228.289 161.227 209.539 161.227C197.039 161.227 185.359 159.508 174.5 156.07C163.719 152.633 154.734 147.789 147.547 141.539L154.109 136.266C160.516 141.5 168.562 145.562 178.25 148.453C187.938 151.344 198.367 152.789 209.539 152.789C226.023 152.789 238.602 149.977 247.273 144.352C256.023 138.727 260.398 131.578 260.398 122.906C260.398 113.531 256.805 106.344 249.617 101.344C242.508 96.2656 231.883 93.7266 217.742 93.7266ZM217.742 110.602H204.383C182.664 110.602 165.906 105.68 154.109 95.8359C142.312 85.9141 136.414 72.6719 136.414 56.1094C136.414 48.5312 138.094 41.4219 141.453 34.7812C144.812 28.1406 149.617 22.3203 155.867 17.3203C162.195 12.2422 170.242 8.25781 180.008 5.36719C189.773 2.39844 200.633 0.914062 212.586 0.914062C227.664 0.914062 241.766 3.21875 254.891 7.82812C268.016 12.3594 278.953 18.7266 287.703 26.9297L280.906 31.9688C272.938 24.7813 262.977 19.2344 251.023 15.3281C239.07 11.3438 226.258 9.35156 212.586 9.35156C191.492 9.35156 174.93 13.8047 162.898 22.7109C150.867 31.6172 144.852 42.75 144.852 56.1094C144.852 70.25 150.008 81.4609 160.32 89.7422C170.633 98.0234 185.32 102.164 204.383 102.164H217.273C240.398 102.164 251.961 109.078 251.961 122.906C251.961 129.156 248.406 134.312 241.297 138.375C234.266 142.359 223.68 144.352 209.539 144.352C199.617 144.352 190.398 143.219 181.883 140.953C173.367 138.609 166.336 135.289 160.789 130.992L167.469 125.836C177.234 132.555 191.258 135.914 209.539 135.914C221.258 135.914 229.852 134.703 235.32 132.281C240.789 129.859 243.523 126.734 243.523 122.906C243.523 118.453 241.609 115.289 237.781 113.414C233.953 111.539 227.273 110.602 217.742 110.602ZM217.742 76.8516H204.383C181.57 76.8516 170.164 69.9375 170.164 56.1094C170.164 49.8594 173.68 44.7422 180.711 40.7578C187.82 36.6953 198.445 34.6641 212.586 34.6641C222.508 34.6641 231.727 35.8359 240.242 38.1797C248.758 40.4453 255.789 43.7266 261.336 48.0234L254.656 53.1797C244.891 46.4609 230.867 43.1016 212.586 43.1016C200.867 43.1016 192.273 44.3125 186.805 46.7344C181.336 49.1563 178.602 52.2812 178.602 56.1094C178.602 60.5625 180.516 63.7266 184.344 65.6016C188.172 67.4766 194.852 68.4141 204.383 68.4141H217.742C239.461 68.4141 256.219 73.375 268.016 83.2969C279.812 93.1406 285.711 106.344 285.711 122.906C285.711 130.484 284.031 137.594 280.672 144.234C277.312 150.875 272.469 156.734 266.141 161.812C259.891 166.812 251.883 170.797 242.117 173.766C232.352 176.656 221.492 178.102 209.539 178.102C194.461 178.102 180.359 175.836 167.234 171.305C154.109 166.695 143.172 160.289 134.422 152.086L141.219 147.047C149.188 154.234 159.148 159.82 171.102 163.805C183.055 167.711 195.867 169.664 209.539 169.664C230.633 169.664 247.195 165.211 259.227 156.305C271.258 147.398 277.273 136.266 277.273 122.906C277.273 108.766 272.117 97.5547 261.805 89.2734C251.492 80.9922 236.805 76.8516 217.742 76.8516ZM334.109 52.0078H342.547V174H334.109V52.0078ZM300.359 13.6875V5.25H426.922V13.6875H300.359ZM300.359 30.5625V22.125H426.922V30.5625H300.359ZM300.359 47.4375V39H426.922V47.4375H300.359ZM384.734 52.0078H393.172V174H384.734V52.0078ZM367.859 52.0078H376.297V174H367.859V52.0078ZM350.984 52.0078H359.422V174H350.984V52.0078Z" fill="white"/>
</svg>
