<svg width="370" preserveAspectRatio="none" height="138" viewBox="0 0 370 138" fill="none" xmlns="http://www.w3.org/2000/svg">
<path d="M360.562 0.705078V18.2832L9 18.2832V0.705078L360.562 0.705078ZM360.562 106.174V123.752L96.8906 123.752L96.8906 253.391H79.3125L79.3125 123.752H61.7344L61.7344 253.391H44.1563L44.1562 123.752H26.5781L26.5781 253.391H9L9 106.174L360.562 106.174ZM360.562 71.0176V88.5957L9 88.5957V71.0176L360.562 71.0176ZM360.562 35.8613V53.4395L9 53.4395V35.8613L360.562 35.8613ZM176.236 453.83V425.998C176.236 391.818 183.154 365.533 196.988 347.141C210.986 328.749 230.191 319.553 254.605 319.553C277.392 319.553 296.354 330.376 311.49 352.023C326.79 373.671 334.439 404.025 334.439 443.088C334.439 469.13 330.859 493.381 323.697 515.842C316.536 538.465 306.445 557.264 293.424 572.238L282.438 558.566C293.342 545.22 301.806 528.456 307.828 508.273C313.85 488.091 316.861 466.363 316.861 443.088C316.861 408.745 311.002 382.46 299.283 364.23C287.564 346.164 272.672 337.131 254.605 337.131C235.074 337.131 220.019 344.536 209.439 359.348C199.023 374.322 193.814 396.538 193.814 425.998V452.854C193.814 487.521 186.816 514.051 172.818 532.443C158.984 550.998 139.859 560.275 115.445 560.275C92.6589 560.275 73.6159 549.452 58.3164 527.805C43.1797 506.158 35.6113 475.803 35.6113 436.74C35.6113 410.699 39.1921 386.366 46.3535 363.742C53.515 341.281 63.6061 322.564 76.627 307.59L87.6133 321.262C76.7083 334.608 68.2448 351.372 62.2227 371.555C56.2005 391.737 53.1895 413.465 53.1895 436.74C53.1895 471.083 59.0488 497.287 70.7676 515.354C82.4863 533.583 97.3789 542.697 115.445 542.697C134.977 542.697 149.951 535.21 160.367 520.236C170.947 505.425 176.236 483.29 176.236 453.83ZM141.08 453.83L141.08 425.998C141.08 380.751 151.334 345.839 171.842 321.262C192.512 296.685 220.1 284.396 254.605 284.396C270.393 284.396 285.204 287.896 299.039 294.895C312.874 301.893 324.999 311.903 335.416 324.924C345.995 338.107 354.296 354.872 360.318 375.217C366.503 395.562 369.596 418.186 369.596 443.088C369.596 474.501 364.794 503.879 355.191 531.223C345.751 558.566 332.486 581.353 315.396 599.582L304.898 585.422C319.872 568.82 331.428 548.068 339.566 523.166C347.867 498.264 352.018 471.571 352.018 443.088C352.018 399.143 342.74 364.637 324.186 339.572C305.631 314.507 282.438 301.975 254.605 301.975C225.146 301.975 201.79 312.717 184.537 334.201C167.285 355.686 158.658 386.285 158.658 425.998V452.854C158.658 501.031 144.254 525.119 115.445 525.119C102.424 525.119 91.6823 517.714 83.2188 502.902C74.918 488.254 70.7676 466.2 70.7676 436.74C70.7676 416.07 73.1276 396.864 77.8477 379.123C82.7305 361.382 89.6478 346.734 98.5996 335.178L109.342 349.094C95.3444 369.439 88.3457 398.654 88.3457 436.74C88.3457 461.154 90.8685 479.058 95.9141 490.451C100.96 501.844 107.47 507.541 115.445 507.541C124.723 507.541 131.314 503.553 135.221 495.578C139.127 487.603 141.08 473.687 141.08 453.83ZM211.393 453.83V425.998C211.393 378.472 225.797 354.709 254.605 354.709C267.626 354.709 278.287 362.033 286.588 376.682C295.051 391.493 299.283 413.628 299.283 443.088C299.283 463.758 296.842 482.964 291.959 500.705C287.239 518.446 280.403 533.094 271.451 544.65L260.709 530.734C274.706 510.389 281.705 481.174 281.705 443.088C281.705 418.674 279.182 400.77 274.137 389.377C269.091 377.984 262.581 372.287 254.605 372.287C245.328 372.287 238.736 376.275 234.83 384.25C230.924 392.225 228.971 406.141 228.971 425.998V453.83C228.971 499.077 218.635 533.99 197.965 558.566C177.457 583.143 149.951 595.432 115.445 595.432C99.6576 595.432 84.8464 591.932 71.0117 584.934C57.1771 577.935 44.9701 567.844 34.3906 554.66C23.974 541.639 15.6732 524.956 9.48828 504.611C3.46615 484.266 0.455078 461.643 0.455078 436.74C0.455078 405.327 5.17513 375.949 14.6152 348.605C24.2181 321.262 37.5645 298.475 54.6543 280.246L65.1523 294.406C50.1784 311.008 38.541 331.76 30.2402 356.662C22.1022 381.564 18.0332 408.257 18.0332 436.74C18.0332 480.686 27.3105 515.191 45.8652 540.256C64.4199 565.321 87.6133 577.854 115.445 577.854C144.905 577.854 168.261 567.111 185.514 545.627C202.766 524.143 211.393 493.544 211.393 453.83ZM263.15 696.262V713.84L9 713.84V696.262L263.15 696.262ZM342.984 625.949H360.563L360.563 889.621H342.984L342.984 625.949ZM307.828 625.949H325.406L325.406 889.621H307.828L307.828 625.949ZM272.672 625.949H290.25L290.25 889.621H272.672L272.672 625.949ZM263.15 801.73L263.15 819.309L9 819.309V801.73L263.15 801.73ZM263.15 766.574V784.152L9 784.152V766.574L263.15 766.574ZM263.15 731.418V748.996L9 748.996L9 731.418L263.15 731.418Z" fill="#FFD03E"/>
</svg>
